<?xml version="1.0" encoding="utf-8"?>
<!-- Generator: Adobe Illustrator 16.0.4, SVG Export Plug-In . SVG Version: 6.00 Build 0)  -->
<!DOCTYPE svg PUBLIC "-//W3C//DTD SVG 1.1//EN" "http://www.w3.org/Graphics/SVG/1.1/DTD/svg11.dtd">
<svg version="1.1" id="Calque_1" xmlns="http://www.w3.org/2000/svg" xmlns:xlink="http://www.w3.org/1999/xlink" x="0px" y="0px"
	 width="612px" height="792px" viewBox="0 0 612 792" enable-background="new 0 0 612 792" xml:space="preserve">
<title>content</title>
<circle fill="none" stroke="#BBBBBB" stroke-width="10" stroke-miterlimit="10" cx="306" cy="396" r="306"/>
<circle fill="none" stroke="#BBBBBB" stroke-width="10" stroke-miterlimit="10" cx="193.944" cy="296.873" r="48.486"/>
<circle fill="none" stroke="#BBBBBB" stroke-width="10" stroke-miterlimit="10" cx="401.151" cy="296.873" r="48.486"/>
<path fill="none" stroke="#BBBBBB" stroke-width="10" stroke-miterlimit="10" d="M442.645,480.106
	c-8.416-9.438-22.89-10.266-32.327-1.85c-0.651,0.581-1.27,1.198-1.851,1.85c-56.643,61.352-148.324,61.309-204.891,0.055v-0.055
	c-8.432-9.432-22.913-10.242-32.345-1.811c-0.637,0.569-1.241,1.174-1.811,1.811c-9.457,10.517-9.457,26.474,0,36.99l0,0
	c75.423,81.639,197.748,81.639,273.203,0C452.042,506.568,452.051,490.646,442.645,480.106z"/>
</svg>
