<?xml version="1.0" encoding="utf-8"?>
<!-- Generator: Adobe Illustrator 16.0.4, SVG Export Plug-In . SVG Version: 6.00 Build 0)  -->
<!DOCTYPE svg PUBLIC "-//W3C//DTD SVG 1.1//EN" "http://www.w3.org/Graphics/SVG/1.1/DTD/svg11.dtd">
<svg version="1.1" id="Calque_1" xmlns="http://www.w3.org/2000/svg" xmlns:xlink="http://www.w3.org/1999/xlink" x="0px" y="0px"
	 width="612px" height="611.242px" viewBox="0 90 612 611.242" enable-background="new 0 90 612 611.242" xml:space="preserve">
<title>content</title>
<path fill="#DDDDDD" d="M306,90C137.001,90,0,227.001,0,396s137.001,306,306,306s306-137.001,306-306S474.999,90,306,90z
	 M401.151,248.387c26.777,0,48.485,21.708,48.485,48.486c0,26.778-21.708,48.486-48.485,48.486
	c-26.778,0-48.486-21.708-48.486-48.486C352.665,270.095,374.373,248.387,401.151,248.387z M145.458,296.873
	c0-26.778,21.708-48.486,48.486-48.486c26.778,0,48.486,21.708,48.486,48.486c0,26.778-21.708,48.486-48.486,48.486
	C167.166,345.359,145.458,323.651,145.458,296.873z M442.623,517.097c-75.455,81.639-197.78,81.639-273.203,0
	c-9.457-10.517-9.457-26.474,0-36.99c0.57-0.637,1.174-1.241,1.811-1.811c9.432-8.432,23.913-7.621,32.345,1.811v0.055
	c56.567,61.254,148.248,61.297,204.891-0.055c0.581-0.651,1.199-1.269,1.851-1.85c9.438-8.416,23.911-7.588,32.327,1.85
	C452.051,490.646,452.042,506.568,442.623,517.097z"/>
</svg>
